<svg width="32" height="32" viewBox="0 0 32 32" fill="none" xmlns="http://www.w3.org/2000/svg">
  <!-- Circle background -->
  <circle cx="16" cy="16" r="15" fill="#16a34a" />
  
  <!-- Simplified football pattern -->
  <path
    d="M16 3C8.8 3 3 8.8 3 16s5.8 13 13 13 13-5.8 13-13S23.2 3 16 3zm0 2c3 0 5.7 1.2 7.8 3.1l-2.6 2.6c-1.4-1.1-3.2-1.8-5.2-1.8s-3.8 0.7-5.2 1.8L8.2 8.1C10.3 6.2 13 5 16 5zm-9 11c0-2 0.7-3.8 1.8-5.2l2.6 2.6c-1.1 1.4-1.8 3.2-1.8 5.2s0.7 3.8 1.8 5.2l-2.6 2.6C7.7 19.8 7 18 7 16zm9 9c-3 0-5.7-1.2-7.8-3.1l2.6-2.6c1.4 1.1 3.2 1.8 5.2 1.8s3.8-0.7 5.2-1.8l2.6 2.6C21.7 23.8 19 25 16 25zm7-3.8c1.1-1.4 1.8-3.2 1.8-5.2s-0.7-3.8-1.8-5.2l2.6-2.6c1.1 1.4 1.8 3.2 1.8 5.2s-0.7 3.8-1.8 5.2l-2.6 2.6z"
    fill="white"
    fillOpacity="0.9"
  />
  
  <!-- Star element -->
  <path
    d="M21 10l1 2.5 2.5 0.5-2 1.5 0.5 2.5-2-1-2 1 0.5-2.5-2-1.5 2.5-0.5z"
    fill="white"
  />
</svg> 